<svg xmlns="http://www.w3.org/2000/svg" viewBox="0 0 100 100" width="100%" height="100%">
  <rect width="100" height="100" fill="#181717" rx="15"/>
  <path d="M50 12C28.5 12 11 29.5 11 51c0 17.2 11.1 31.8 26.6 37 2 .3 2.7-.8 2.7-1.9v-6.7c-10.8 2.3-13.1-5.2-13.1-5.2-1.8-4.5-4.3-5.7-4.3-5.7-3.5-2.4.3-2.4.3-2.4 3.9.3 6 4 6 4 3.5 6 9.1 4.3 11.3 3.3.3-2.5 1.4-4.3 2.5-5.3-8.6-1-17.7-4.3-17.7-19.3 0-4.3 1.5-7.8 4-10.5-.4-1-.1-4.8.4-10.4 0 0 3.3-1 10.8 4 3.1-.9 6.5-1.3 9.9-1.3s6.8.4 9.9 1.3c7.5-5 10.8-4 10.8-4 .5 5.6.8 9.4.4 10.4 2.5 2.7 4 6.2 4 10.5 0 15-9.1 18.2-17.8 19.2 1.4 1.2 2.7 3.6 2.7 7.2v10.7c0 1.1.7 2.3 2.8 1.9C77.9 82.8 89 68.2 89 51c0-21.5-17.5-39-39-39z" fill="#FFFFFF"/>
</svg>