<svg xmlns="http://www.w3.org/2000/svg" viewBox="0 0 100 100" width="100%" height="100%">
  <rect width="100" height="100" fill="#000000" rx="15"/>
  <path d="M 50 20 C 30 20 15 35 15 55 C 15 75 30 90 50 90 C 70 90 80 75 80 55 M 50 30 C 38 30 25 40 25 55 C 25 70 38 80 50 80 C 62 80 70 70 70 55" fill="none" stroke="#76B900" stroke-width="6" stroke-linecap="round"/>
  <path d="M 50 40 C 44 40 35 47 35 55 C 35 63 44 70 50 70" fill="none" stroke="#76B900" stroke-width="6" stroke-linecap="round"/>
  <polygon points="45,45 55,45 50,30" fill="#76B900"/>
</svg>